<svg width="190" height="50" viewBox="0 0 190 50" fill="none" xmlns="http://www.w3.org/2000/svg">
<g clip-path="url(#clip0_5_130)">
<path d="M7.6699 19.5631H4.36893C1.95604 19.5631 0 21.5191 0 23.932V50.0485H2.52427V24.9029C2.52427 23.2943 3.8283 21.9903 5.43689 21.9903H7.6699V19.5631Z" fill="#272B38"/>
<path d="M42.233 21.9903H44.5631C46.1717 21.9903 47.4757 23.2943 47.4757 24.9029V50.0485H50V23.932C50 21.5191 48.044 19.5631 45.6311 19.5631H42.233V21.9903Z" fill="#272B38"/>
<rect x="7.57281" y="30.0485" width="34.7573" height="2.52427" fill="#272B38"/>
<path d="M15.1461 11.6019C9.94222 17 9.19141 26.1489 9.46649 30.0485H38.0587C38.0587 23.9903 41.1332 18.0097 42.6704 15.7767C45.583 10.4175 45.9875 3.02589 45.8257 0H16.651C17.8549 6.48544 16.1493 10.4369 15.1461 11.6019Z" fill="#272B38"/>
<rect x="47.5728" y="47.5243" width="2.52427" height="45.0485" transform="rotate(90 47.5728 47.5243)" fill="#272B38"/>
<rect x="14.369" y="36.7476" width="2.52427" height="6.50485" transform="rotate(90 14.369 36.7476)" fill="#272B38"/>
<rect x="24.2719" y="36.7476" width="2.52427" height="6.50485" transform="rotate(90 24.2719 36.7476)" fill="#272B38"/>
<rect x="34.1747" y="36.7476" width="2.52427" height="6.50485" transform="rotate(90 34.1747 36.7476)" fill="#FF284C"/>
</g>
<path d="M72.736 25C72.472 25 72.25 24.91 72.07 24.73C71.89 24.55 71.8 24.328 71.8 24.064V11.878C71.8 11.602 71.89 11.38 72.07 11.212C72.25 11.032 72.472 10.942 72.736 10.942H76.336C77.236 10.942 78.034 11.14 78.73 11.536C79.426 11.932 79.966 12.484 80.35 13.192C80.746 13.888 80.944 14.692 80.944 15.604C80.944 16.48 80.746 17.26 80.35 17.944C79.966 18.628 79.426 19.162 78.73 19.546C78.034 19.93 77.236 20.122 76.336 20.122H73.672V24.064C73.672 24.328 73.582 24.55 73.402 24.73C73.234 24.91 73.012 25 72.736 25ZM73.672 18.394H76.336C76.888 18.394 77.374 18.274 77.794 18.034C78.214 17.794 78.544 17.464 78.784 17.044C79.024 16.624 79.144 16.144 79.144 15.604C79.144 15.028 79.024 14.524 78.784 14.092C78.544 13.648 78.214 13.3 77.794 13.048C77.374 12.796 76.888 12.67 76.336 12.67H73.672V18.394ZM83.8968 18.844C83.8968 18.124 84.0708 17.482 84.4188 16.918C84.7788 16.342 85.2588 15.886 85.8588 15.55C86.4588 15.214 87.1188 15.046 87.8388 15.046C88.5588 15.046 89.0928 15.166 89.4408 15.406C89.8008 15.634 89.9388 15.91 89.8548 16.234C89.8188 16.402 89.7468 16.534 89.6388 16.63C89.5428 16.714 89.4288 16.768 89.2968 16.792C89.1648 16.816 89.0208 16.81 88.8648 16.774C88.0968 16.618 87.4068 16.606 86.7948 16.738C86.1828 16.87 85.6968 17.116 85.3368 17.476C84.9888 17.836 84.8148 18.292 84.8148 18.844H83.8968ZM83.9148 25C83.6268 25 83.4048 24.928 83.2488 24.784C83.0928 24.628 83.0148 24.4 83.0148 24.1V16.054C83.0148 15.766 83.0928 15.544 83.2488 15.388C83.4048 15.232 83.6268 15.154 83.9148 15.154C84.2148 15.154 84.4368 15.232 84.5808 15.388C84.7368 15.532 84.8148 15.754 84.8148 16.054V24.1C84.8148 24.388 84.7368 24.61 84.5808 24.766C84.4368 24.922 84.2148 25 83.9148 25ZM93.0468 25C92.7828 25 92.5608 24.916 92.3808 24.748C92.2128 24.568 92.1288 24.346 92.1288 24.082V16.072C92.1288 15.796 92.2128 15.574 92.3808 15.406C92.5608 15.238 92.7828 15.154 93.0468 15.154C93.3228 15.154 93.5448 15.238 93.7128 15.406C93.8808 15.574 93.9648 15.796 93.9648 16.072V24.082C93.9648 24.346 93.8808 24.568 93.7128 24.748C93.5448 24.916 93.3228 25 93.0468 25ZM93.0468 13.552C92.7228 13.552 92.4408 13.438 92.2008 13.21C91.9728 12.97 91.8588 12.688 91.8588 12.364C91.8588 12.04 91.9728 11.764 92.2008 11.536C92.4408 11.296 92.7228 11.176 93.0468 11.176C93.3708 11.176 93.6468 11.296 93.8748 11.536C94.1148 11.764 94.2348 12.04 94.2348 12.364C94.2348 12.688 94.1148 12.97 93.8748 13.21C93.6468 13.438 93.3708 13.552 93.0468 13.552ZM105.876 25.018C105.612 25.018 105.39 24.934 105.21 24.766C105.042 24.586 104.958 24.364 104.958 24.1V19.672C104.958 18.988 104.832 18.43 104.58 17.998C104.328 17.566 103.986 17.248 103.554 17.044C103.134 16.828 102.648 16.72 102.096 16.72C101.592 16.72 101.136 16.822 100.728 17.026C100.32 17.23 99.9964 17.506 99.7564 17.854C99.5164 18.19 99.3964 18.58 99.3964 19.024H98.2624C98.2624 18.268 98.4424 17.596 98.8024 17.008C99.1744 16.408 99.6784 15.934 100.314 15.586C100.95 15.238 101.664 15.064 102.456 15.064C103.284 15.064 104.022 15.244 104.67 15.604C105.33 15.952 105.846 16.468 106.218 17.152C106.602 17.836 106.794 18.676 106.794 19.672V24.1C106.794 24.364 106.704 24.586 106.524 24.766C106.356 24.934 106.14 25.018 105.876 25.018ZM98.4784 25.018C98.2144 25.018 97.9924 24.934 97.8124 24.766C97.6444 24.586 97.5604 24.364 97.5604 24.1V16.072C97.5604 15.796 97.6444 15.574 97.8124 15.406C97.9924 15.238 98.2144 15.154 98.4784 15.154C98.7544 15.154 98.9764 15.238 99.1444 15.406C99.3124 15.574 99.3964 15.796 99.3964 16.072V24.1C99.3964 24.364 99.3124 24.586 99.1444 24.766C98.9764 24.934 98.7544 25.018 98.4784 25.018ZM113.592 25C112.992 25 112.452 24.85 111.972 24.55C111.492 24.238 111.114 23.818 110.838 23.29C110.562 22.762 110.424 22.168 110.424 21.508V12.922C110.424 12.658 110.508 12.442 110.676 12.274C110.844 12.106 111.06 12.022 111.324 12.022C111.588 12.022 111.804 12.106 111.972 12.274C112.14 12.442 112.224 12.658 112.224 12.922V21.508C112.224 21.988 112.356 22.39 112.62 22.714C112.884 23.038 113.208 23.2 113.592 23.2H114.204C114.42 23.2 114.6 23.284 114.744 23.452C114.9 23.62 114.978 23.836 114.978 24.1C114.978 24.364 114.876 24.58 114.672 24.748C114.48 24.916 114.228 25 113.916 25H113.592ZM109.596 17.062C109.344 17.062 109.14 16.99 108.984 16.846C108.828 16.702 108.75 16.522 108.75 16.306C108.75 16.066 108.828 15.874 108.984 15.73C109.14 15.586 109.344 15.514 109.596 15.514H113.754C114.006 15.514 114.21 15.586 114.366 15.73C114.522 15.874 114.6 16.066 114.6 16.306C114.6 16.522 114.522 16.702 114.366 16.846C114.21 16.99 114.006 17.062 113.754 17.062H109.596ZM122.041 25.072C121.045 25.072 120.157 24.862 119.377 24.442C118.609 24.01 118.003 23.422 117.559 22.678C117.127 21.922 116.911 21.058 116.911 20.086C116.911 19.102 117.115 18.238 117.523 17.494C117.943 16.738 118.519 16.15 119.251 15.73C119.983 15.298 120.823 15.082 121.771 15.082C122.707 15.082 123.511 15.292 124.183 15.712C124.855 16.12 125.365 16.69 125.713 17.422C126.073 18.142 126.253 18.976 126.253 19.924C126.253 20.152 126.175 20.344 126.019 20.5C125.863 20.644 125.665 20.716 125.425 20.716H118.171V19.276H125.371L124.633 19.78C124.621 19.18 124.501 18.646 124.273 18.178C124.045 17.698 123.721 17.32 123.301 17.044C122.881 16.768 122.371 16.63 121.771 16.63C121.087 16.63 120.499 16.78 120.007 17.08C119.527 17.38 119.161 17.794 118.909 18.322C118.657 18.838 118.531 19.426 118.531 20.086C118.531 20.746 118.681 21.334 118.981 21.85C119.281 22.366 119.695 22.774 120.223 23.074C120.751 23.374 121.357 23.524 122.041 23.524C122.413 23.524 122.791 23.458 123.175 23.326C123.571 23.182 123.889 23.02 124.129 22.84C124.309 22.708 124.501 22.642 124.705 22.642C124.921 22.63 125.107 22.69 125.263 22.822C125.467 23.002 125.575 23.2 125.587 23.416C125.599 23.632 125.503 23.818 125.299 23.974C124.891 24.298 124.381 24.562 123.769 24.766C123.169 24.97 122.593 25.072 122.041 25.072ZM129.656 18.844C129.656 18.124 129.83 17.482 130.178 16.918C130.538 16.342 131.018 15.886 131.618 15.55C132.218 15.214 132.878 15.046 133.598 15.046C134.318 15.046 134.852 15.166 135.2 15.406C135.56 15.634 135.698 15.91 135.614 16.234C135.578 16.402 135.506 16.534 135.398 16.63C135.302 16.714 135.188 16.768 135.056 16.792C134.924 16.816 134.78 16.81 134.624 16.774C133.856 16.618 133.166 16.606 132.554 16.738C131.942 16.87 131.456 17.116 131.096 17.476C130.748 17.836 130.574 18.292 130.574 18.844H129.656ZM129.674 25C129.386 25 129.164 24.928 129.008 24.784C128.852 24.628 128.774 24.4 128.774 24.1V16.054C128.774 15.766 128.852 15.544 129.008 15.388C129.164 15.232 129.386 15.154 129.674 15.154C129.974 15.154 130.196 15.232 130.34 15.388C130.496 15.532 130.574 15.754 130.574 16.054V24.1C130.574 24.388 130.496 24.61 130.34 24.766C130.196 24.922 129.974 25 129.674 25Z" fill="#272B38"/>
<path d="M142.352 25.18C141.584 25.18 140.852 25.06 140.156 24.82C139.46 24.58 138.854 24.244 138.338 23.812C137.822 23.38 137.444 22.882 137.204 22.318C137.084 22.066 137.084 21.832 137.204 21.616C137.336 21.4 137.552 21.262 137.852 21.202C138.068 21.154 138.278 21.19 138.482 21.31C138.698 21.418 138.86 21.586 138.968 21.814C139.112 22.114 139.346 22.39 139.67 22.642C140.006 22.894 140.408 23.098 140.876 23.254C141.344 23.41 141.836 23.488 142.352 23.488C142.928 23.488 143.456 23.398 143.936 23.218C144.428 23.038 144.824 22.78 145.124 22.444C145.424 22.096 145.574 21.67 145.574 21.166C145.574 20.53 145.322 19.96 144.818 19.456C144.326 18.952 143.51 18.64 142.37 18.52C140.882 18.376 139.712 17.938 138.86 17.206C138.008 16.474 137.582 15.568 137.582 14.488C137.582 13.696 137.804 13.024 138.248 12.472C138.692 11.92 139.292 11.5 140.048 11.212C140.816 10.924 141.668 10.78 142.604 10.78C143.336 10.78 143.972 10.882 144.512 11.086C145.064 11.29 145.544 11.572 145.952 11.932C146.36 12.292 146.714 12.718 147.014 13.21C147.182 13.474 147.248 13.726 147.212 13.966C147.188 14.194 147.074 14.374 146.87 14.506C146.642 14.65 146.396 14.68 146.132 14.596C145.868 14.512 145.67 14.356 145.538 14.128C145.346 13.78 145.112 13.486 144.836 13.246C144.56 13.006 144.236 12.82 143.864 12.688C143.492 12.544 143.054 12.472 142.55 12.472C141.662 12.46 140.918 12.628 140.318 12.976C139.718 13.312 139.418 13.834 139.418 14.542C139.418 14.902 139.508 15.25 139.688 15.586C139.88 15.91 140.222 16.192 140.714 16.432C141.218 16.672 141.938 16.84 142.874 16.936C144.302 17.08 145.412 17.518 146.204 18.25C147.008 18.97 147.41 19.924 147.41 21.112C147.41 21.796 147.266 22.39 146.978 22.894C146.702 23.398 146.324 23.824 145.844 24.172C145.376 24.508 144.836 24.76 144.224 24.928C143.624 25.096 143 25.18 142.352 25.18ZM154.745 25.072C153.773 25.072 152.915 24.862 152.171 24.442C151.427 24.01 150.839 23.422 150.407 22.678C149.987 21.922 149.777 21.058 149.777 20.086C149.777 19.102 149.987 18.238 150.407 17.494C150.839 16.738 151.427 16.15 152.171 15.73C152.915 15.298 153.773 15.082 154.745 15.082C155.705 15.082 156.557 15.298 157.301 15.73C158.045 16.15 158.627 16.738 159.047 17.494C159.479 18.238 159.695 19.102 159.695 20.086C159.695 21.058 159.485 21.922 159.065 22.678C158.645 23.422 158.063 24.01 157.319 24.442C156.575 24.862 155.717 25.072 154.745 25.072ZM154.745 23.452C155.369 23.452 155.921 23.308 156.401 23.02C156.881 22.732 157.253 22.336 157.517 21.832C157.793 21.328 157.931 20.746 157.931 20.086C157.931 19.426 157.793 18.844 157.517 18.34C157.253 17.824 156.881 17.422 156.401 17.134C155.921 16.846 155.369 16.702 154.745 16.702C154.121 16.702 153.569 16.846 153.089 17.134C152.609 17.422 152.231 17.824 151.955 18.34C151.679 18.844 151.541 19.426 151.541 20.086C151.541 20.746 151.679 21.328 151.955 21.832C152.231 22.336 152.609 22.732 153.089 23.02C153.569 23.308 154.121 23.452 154.745 23.452ZM167.071 25.072C166.111 25.072 165.253 24.856 164.497 24.424C163.753 23.98 163.165 23.386 162.733 22.642C162.313 21.886 162.103 21.034 162.103 20.086C162.103 19.114 162.313 18.25 162.733 17.494C163.153 16.738 163.729 16.15 164.461 15.73C165.193 15.298 166.033 15.082 166.981 15.082C167.689 15.082 168.337 15.22 168.925 15.496C169.513 15.76 170.041 16.162 170.509 16.702C170.677 16.894 170.737 17.092 170.689 17.296C170.641 17.5 170.509 17.68 170.293 17.836C170.125 17.956 169.939 17.998 169.735 17.962C169.531 17.914 169.345 17.806 169.177 17.638C168.589 17.014 167.857 16.702 166.981 16.702C166.369 16.702 165.829 16.846 165.361 17.134C164.893 17.41 164.527 17.8 164.263 18.304C163.999 18.808 163.867 19.402 163.867 20.086C163.867 20.734 163.999 21.31 164.263 21.814C164.539 22.318 164.917 22.72 165.397 23.02C165.877 23.308 166.435 23.452 167.071 23.452C167.491 23.452 167.857 23.404 168.169 23.308C168.493 23.2 168.787 23.038 169.051 22.822C169.243 22.666 169.441 22.582 169.645 22.57C169.849 22.546 170.029 22.6 170.185 22.732C170.389 22.9 170.503 23.092 170.527 23.308C170.551 23.512 170.479 23.698 170.311 23.866C169.447 24.67 168.367 25.072 167.071 25.072ZM174.516 21.418C174.252 21.418 174.03 21.334 173.85 21.166C173.682 20.986 173.598 20.764 173.598 20.5V11.86C173.598 11.584 173.682 11.362 173.85 11.194C174.03 11.026 174.252 10.942 174.516 10.942C174.792 10.942 175.014 11.026 175.182 11.194C175.35 11.362 175.434 11.584 175.434 11.86V20.5C175.434 20.764 175.35 20.986 175.182 21.166C175.014 21.334 174.792 21.418 174.516 21.418ZM181.914 25.018C181.65 25.018 181.428 24.934 181.248 24.766C181.08 24.586 180.996 24.364 180.996 24.1V19.672C180.996 18.988 180.87 18.43 180.618 17.998C180.366 17.566 180.024 17.248 179.592 17.044C179.172 16.828 178.686 16.72 178.134 16.72C177.63 16.72 177.174 16.822 176.766 17.026C176.358 17.23 176.034 17.506 175.794 17.854C175.554 18.19 175.434 18.58 175.434 19.024H174.3C174.3 18.268 174.48 17.596 174.84 17.008C175.212 16.408 175.716 15.934 176.352 15.586C176.988 15.238 177.702 15.064 178.494 15.064C179.322 15.064 180.06 15.244 180.708 15.604C181.368 15.952 181.884 16.468 182.256 17.152C182.64 17.836 182.832 18.676 182.832 19.672V24.1C182.832 24.364 182.742 24.586 182.562 24.766C182.394 24.934 182.178 25.018 181.914 25.018ZM174.516 25.018C174.252 25.018 174.03 24.934 173.85 24.766C173.682 24.586 173.598 24.364 173.598 24.1V16.072C173.598 15.796 173.682 15.574 173.85 15.406C174.03 15.238 174.252 15.154 174.516 15.154C174.792 15.154 175.014 15.238 175.182 15.406C175.35 15.574 175.434 15.796 175.434 16.072V24.1C175.434 24.364 175.35 24.586 175.182 24.766C175.014 24.934 174.792 25.018 174.516 25.018ZM187.163 25C186.899 25 186.677 24.916 186.497 24.748C186.329 24.568 186.245 24.346 186.245 24.082V16.072C186.245 15.796 186.329 15.574 186.497 15.406C186.677 15.238 186.899 15.154 187.163 15.154C187.439 15.154 187.661 15.238 187.829 15.406C187.997 15.574 188.081 15.796 188.081 16.072V24.082C188.081 24.346 187.997 24.568 187.829 24.748C187.661 24.916 187.439 25 187.163 25ZM187.163 13.552C186.839 13.552 186.557 13.438 186.317 13.21C186.089 12.97 185.975 12.688 185.975 12.364C185.975 12.04 186.089 11.764 186.317 11.536C186.557 11.296 186.839 11.176 187.163 11.176C187.487 11.176 187.763 11.296 187.991 11.536C188.231 11.764 188.351 12.04 188.351 12.364C188.351 12.688 188.231 12.97 187.991 13.21C187.763 13.438 187.487 13.552 187.163 13.552Z" fill="#FF284C"/>
<path d="M73.582 39.081C72.94 39.081 72.391 38.949 71.935 38.685C71.479 38.421 71.128 38.046 70.882 37.56C70.642 37.068 70.522 36.489 70.522 35.823C70.522 35.157 70.642 34.581 70.882 34.095C71.128 33.609 71.479 33.234 71.935 32.97C72.391 32.706 72.94 32.574 73.582 32.574C74.014 32.574 74.416 32.643 74.788 32.781C75.166 32.913 75.481 33.105 75.733 33.357L75.409 34.104C75.133 33.858 74.848 33.681 74.554 33.573C74.266 33.459 73.951 33.402 73.609 33.402C72.925 33.402 72.403 33.612 72.043 34.032C71.683 34.452 71.503 35.049 71.503 35.823C71.503 36.597 71.683 37.197 72.043 37.623C72.403 38.043 72.925 38.253 73.609 38.253C73.951 38.253 74.266 38.199 74.554 38.091C74.848 37.977 75.133 37.797 75.409 37.551L75.733 38.298C75.481 38.544 75.166 38.736 74.788 38.874C74.416 39.012 74.014 39.081 73.582 39.081ZM78.7481 39.081C78.0281 39.081 77.4611 38.88 77.0471 38.478C76.6331 38.07 76.4261 37.515 76.4261 36.813C76.4261 36.363 76.5161 35.967 76.6961 35.625C76.8821 35.277 77.1371 35.007 77.4611 34.815C77.7851 34.623 78.1571 34.527 78.5771 34.527C79.1831 34.527 79.6601 34.722 80.0081 35.112C80.3561 35.496 80.5301 36.027 80.5301 36.705V37.011H77.3081C77.3741 37.923 77.8571 38.379 78.7571 38.379C79.0091 38.379 79.2551 38.34 79.4951 38.262C79.7411 38.184 79.9721 38.055 80.1881 37.875L80.4581 38.505C80.2601 38.685 80.0051 38.826 79.6931 38.928C79.3811 39.03 79.0661 39.081 78.7481 39.081ZM78.6131 35.166C78.2351 35.166 77.9351 35.283 77.7131 35.517C77.4911 35.751 77.3561 36.063 77.3081 36.453H79.7651C79.7471 36.045 79.6391 35.73 79.4411 35.508C79.2431 35.28 78.9671 35.166 78.6131 35.166ZM81.6178 40.62V34.608H82.5088V35.355C82.6348 35.103 82.8268 34.902 83.0848 34.752C83.3428 34.602 83.6398 34.527 83.9758 34.527C84.3658 34.527 84.7048 34.62 84.9928 34.806C85.2868 34.992 85.5118 35.256 85.6678 35.598C85.8298 35.934 85.9108 36.336 85.9108 36.804C85.9108 37.272 85.8298 37.677 85.6678 38.019C85.5118 38.361 85.2868 38.625 84.9928 38.811C84.7048 38.991 84.3658 39.081 83.9758 39.081C83.6518 39.081 83.3608 39.012 83.1028 38.874C82.8508 38.73 82.6588 38.535 82.5268 38.289V40.62H81.6178ZM83.7508 38.379C84.1288 38.379 84.4288 38.244 84.6508 37.974C84.8788 37.704 84.9928 37.314 84.9928 36.804C84.9928 36.294 84.8788 35.907 84.6508 35.643C84.4288 35.373 84.1288 35.238 83.7508 35.238C83.3728 35.238 83.0698 35.373 82.8418 35.643C82.6198 35.907 82.5088 36.294 82.5088 36.804C82.5088 37.314 82.6198 37.704 82.8418 37.974C83.0698 38.244 83.3728 38.379 83.7508 38.379ZM87.0229 39V34.608H89.2639C89.8039 34.608 90.1969 34.71 90.4429 34.914C90.6949 35.112 90.8209 35.394 90.8209 35.76C90.8209 35.988 90.7549 36.189 90.6229 36.363C90.4969 36.531 90.3229 36.654 90.1009 36.732C90.3769 36.798 90.5899 36.924 90.7399 37.11C90.8899 37.296 90.9649 37.518 90.9649 37.776C90.9649 38.154 90.8239 38.454 90.5419 38.676C90.2599 38.892 89.8579 39 89.3359 39H87.0229ZM87.8779 36.471H89.2009C89.4469 36.471 89.6359 36.414 89.7679 36.3C89.9059 36.186 89.9749 36.03 89.9749 35.832C89.9749 35.628 89.9059 35.472 89.7679 35.364C89.6359 35.256 89.4469 35.202 89.2009 35.202H87.8779V36.471ZM87.8779 38.415H89.2819C89.8459 38.415 90.1279 38.187 90.1279 37.731C90.1279 37.281 89.8459 37.056 89.2819 37.056H87.8779V38.415ZM92.0238 39V34.608H92.8518V37.794L95.2278 34.608H95.9928V39H95.1648V35.823L92.7888 39H92.0238ZM99.3028 39.081C98.8528 39.081 98.4628 38.988 98.1328 38.802C97.8088 38.61 97.5568 38.343 97.3768 38.001C97.1968 37.653 97.1068 37.245 97.1068 36.777C97.1068 36.081 97.3048 35.532 97.7008 35.13C98.0968 34.728 98.6308 34.527 99.3028 34.527C99.5788 34.527 99.8518 34.575 100.122 34.671C100.392 34.767 100.614 34.899 100.788 35.067L100.5 35.706C100.332 35.55 100.146 35.436 99.9418 35.364C99.7438 35.286 99.5548 35.247 99.3748 35.247C98.9488 35.247 98.6188 35.382 98.3848 35.652C98.1568 35.916 98.0428 36.294 98.0428 36.786C98.0428 37.278 98.1568 37.665 98.3848 37.947C98.6188 38.223 98.9488 38.361 99.3748 38.361C99.5548 38.361 99.7438 38.325 99.9418 38.253C100.146 38.175 100.332 38.058 100.5 37.902L100.788 38.55C100.614 38.712 100.389 38.841 100.113 38.937C99.8428 39.033 99.5728 39.081 99.3028 39.081ZM104.03 39V34.608H108.008V39H107.099V35.337H104.939V39H104.03ZM111.435 39.081C110.715 39.081 110.148 38.88 109.734 38.478C109.32 38.07 109.113 37.515 109.113 36.813C109.113 36.363 109.203 35.967 109.383 35.625C109.569 35.277 109.824 35.007 110.148 34.815C110.472 34.623 110.844 34.527 111.264 34.527C111.87 34.527 112.347 34.722 112.695 35.112C113.043 35.496 113.217 36.027 113.217 36.705V37.011H109.995C110.061 37.923 110.544 38.379 111.444 38.379C111.696 38.379 111.942 38.34 112.182 38.262C112.428 38.184 112.659 38.055 112.875 37.875L113.145 38.505C112.947 38.685 112.692 38.826 112.38 38.928C112.068 39.03 111.753 39.081 111.435 39.081ZM111.3 35.166C110.922 35.166 110.622 35.283 110.4 35.517C110.178 35.751 110.043 36.063 109.995 36.453H112.452C112.434 36.045 112.326 35.73 112.128 35.508C111.93 35.28 111.654 35.166 111.3 35.166ZM117.085 39V37.308C116.761 37.494 116.395 37.587 115.987 37.587C115.351 37.587 114.88 37.434 114.574 37.128C114.268 36.822 114.115 36.357 114.115 35.733V34.608H115.024V35.661C115.024 36.075 115.108 36.375 115.276 36.561C115.45 36.747 115.735 36.84 116.131 36.84C116.323 36.84 116.494 36.819 116.644 36.777C116.794 36.735 116.938 36.663 117.076 36.561V34.608H117.985V39H117.085ZM120.762 39.081C120.456 39.081 120.183 39.021 119.943 38.901C119.703 38.781 119.511 38.619 119.367 38.415C119.229 38.211 119.16 37.98 119.16 37.722C119.16 37.398 119.241 37.143 119.403 36.957C119.571 36.771 119.844 36.636 120.222 36.552C120.606 36.468 121.122 36.426 121.77 36.426H122.076V36.192C122.076 35.85 122.004 35.604 121.86 35.454C121.716 35.304 121.479 35.229 121.149 35.229C120.897 35.229 120.645 35.268 120.393 35.346C120.141 35.418 119.883 35.535 119.619 35.697L119.34 35.058C119.568 34.896 119.853 34.767 120.195 34.671C120.537 34.575 120.864 34.527 121.176 34.527C121.776 34.527 122.22 34.671 122.508 34.959C122.796 35.241 122.94 35.685 122.94 36.291V39H122.085V38.271C121.977 38.523 121.809 38.721 121.581 38.865C121.353 39.009 121.08 39.081 120.762 39.081ZM120.942 38.433C121.266 38.433 121.536 38.319 121.752 38.091C121.968 37.863 122.076 37.575 122.076 37.227V36.984H121.779C121.341 36.984 120.996 37.005 120.744 37.047C120.498 37.089 120.321 37.161 120.213 37.263C120.111 37.359 120.06 37.494 120.06 37.668C120.06 37.896 120.138 38.082 120.294 38.226C120.45 38.364 120.666 38.433 120.942 38.433ZM125.206 39V35.337H123.658V34.608H127.672V35.337H126.115V39H125.206ZM128.402 39V34.608H129.23V37.794L131.606 34.608H132.371V39H131.543V35.823L129.167 39H128.402ZM138.63 40.62V38.334C138.402 38.832 138.012 39.081 137.46 39.081C137.142 39.081 136.86 38.988 136.614 38.802C136.374 38.616 136.185 38.352 136.047 38.01C135.915 37.668 135.849 37.266 135.849 36.804C135.849 36.336 135.915 35.934 136.047 35.598C136.185 35.256 136.374 34.992 136.614 34.806C136.86 34.62 137.142 34.527 137.46 34.527C137.736 34.527 137.973 34.593 138.171 34.725C138.369 34.857 138.522 35.04 138.63 35.274V32.655H139.539V35.265C139.647 35.031 139.8 34.851 139.998 34.725C140.196 34.593 140.43 34.527 140.7 34.527C141.018 34.527 141.297 34.62 141.537 34.806C141.783 34.992 141.972 35.256 142.104 35.598C142.242 35.934 142.311 36.336 142.311 36.804C142.311 37.266 142.242 37.668 142.104 38.01C141.972 38.352 141.786 38.616 141.546 38.802C141.306 38.988 141.024 39.081 140.7 39.081C140.16 39.081 139.773 38.835 139.539 38.343V40.62H138.63ZM137.703 38.388C137.991 38.388 138.219 38.256 138.387 37.992C138.561 37.728 138.648 37.332 138.648 36.804C138.648 36.282 138.561 35.889 138.387 35.625C138.219 35.361 137.991 35.229 137.703 35.229C137.421 35.229 137.193 35.361 137.019 35.625C136.845 35.889 136.758 36.282 136.758 36.804C136.758 37.332 136.842 37.728 137.01 37.992C137.184 38.256 137.415 38.388 137.703 38.388ZM140.457 38.388C140.745 38.388 140.973 38.256 141.141 37.992C141.315 37.728 141.402 37.332 141.402 36.804C141.402 36.282 141.315 35.889 141.141 35.625C140.973 35.361 140.745 35.229 140.457 35.229C140.169 35.229 139.941 35.361 139.773 35.625C139.605 35.889 139.521 36.282 139.521 36.804C139.521 37.332 139.605 37.728 139.773 37.992C139.941 38.256 140.169 38.388 140.457 38.388ZM145.348 39.081C144.904 39.081 144.52 38.988 144.196 38.802C143.872 38.616 143.62 38.355 143.44 38.019C143.266 37.677 143.179 37.272 143.179 36.804C143.179 36.336 143.266 35.934 143.44 35.598C143.62 35.256 143.872 34.992 144.196 34.806C144.52 34.62 144.904 34.527 145.348 34.527C145.78 34.527 146.158 34.62 146.482 34.806C146.806 34.992 147.058 35.256 147.238 35.598C147.418 35.934 147.508 36.336 147.508 36.804C147.508 37.272 147.418 37.677 147.238 38.019C147.058 38.355 146.806 38.616 146.482 38.802C146.158 38.988 145.78 39.081 145.348 39.081ZM145.348 38.379C145.72 38.379 146.02 38.244 146.248 37.974C146.476 37.704 146.59 37.314 146.59 36.804C146.59 36.294 146.476 35.907 146.248 35.643C146.02 35.373 145.72 35.238 145.348 35.238C144.97 35.238 144.667 35.373 144.439 35.643C144.211 35.907 144.097 36.294 144.097 36.804C144.097 37.314 144.211 37.704 144.439 37.974C144.667 38.244 144.97 38.379 145.348 38.379ZM149.543 39V35.337H147.995V34.608H152.009V35.337H150.452V39H149.543ZM154.629 39.081C154.185 39.081 153.801 38.988 153.477 38.802C153.153 38.616 152.901 38.355 152.721 38.019C152.547 37.677 152.46 37.272 152.46 36.804C152.46 36.336 152.547 35.934 152.721 35.598C152.901 35.256 153.153 34.992 153.477 34.806C153.801 34.62 154.185 34.527 154.629 34.527C155.061 34.527 155.439 34.62 155.763 34.806C156.087 34.992 156.339 35.256 156.519 35.598C156.699 35.934 156.789 36.336 156.789 36.804C156.789 37.272 156.699 37.677 156.519 38.019C156.339 38.355 156.087 38.616 155.763 38.802C155.439 38.988 155.061 39.081 154.629 39.081ZM154.629 38.379C155.001 38.379 155.301 38.244 155.529 37.974C155.757 37.704 155.871 37.314 155.871 36.804C155.871 36.294 155.757 35.907 155.529 35.643C155.301 35.373 155.001 35.238 154.629 35.238C154.251 35.238 153.948 35.373 153.72 35.643C153.492 35.907 153.378 36.294 153.378 36.804C153.378 37.314 153.492 37.704 153.72 37.974C153.948 38.244 154.251 38.379 154.629 38.379ZM157.907 39V34.608H161.093V35.337H158.816V39H157.907ZM161.923 40.62V34.608H162.814V35.355C162.94 35.103 163.132 34.902 163.39 34.752C163.648 34.602 163.945 34.527 164.281 34.527C164.671 34.527 165.01 34.62 165.298 34.806C165.592 34.992 165.817 35.256 165.973 35.598C166.135 35.934 166.216 36.336 166.216 36.804C166.216 37.272 166.135 37.677 165.973 38.019C165.817 38.361 165.592 38.625 165.298 38.811C165.01 38.991 164.671 39.081 164.281 39.081C163.957 39.081 163.666 39.012 163.408 38.874C163.156 38.73 162.964 38.535 162.832 38.289V40.62H161.923ZM164.056 38.379C164.434 38.379 164.734 38.244 164.956 37.974C165.184 37.704 165.298 37.314 165.298 36.804C165.298 36.294 165.184 35.907 164.956 35.643C164.734 35.373 164.434 35.238 164.056 35.238C163.678 35.238 163.375 35.373 163.147 35.643C162.925 35.907 162.814 36.294 162.814 36.804C162.814 37.314 162.925 37.704 163.147 37.974C163.375 38.244 163.678 38.379 164.056 38.379ZM168.742 39.081C168.436 39.081 168.163 39.021 167.923 38.901C167.683 38.781 167.491 38.619 167.347 38.415C167.209 38.211 167.14 37.98 167.14 37.722C167.14 37.398 167.221 37.143 167.383 36.957C167.551 36.771 167.824 36.636 168.202 36.552C168.586 36.468 169.102 36.426 169.75 36.426H170.056V36.192C170.056 35.85 169.984 35.604 169.84 35.454C169.696 35.304 169.459 35.229 169.129 35.229C168.877 35.229 168.625 35.268 168.373 35.346C168.121 35.418 167.863 35.535 167.599 35.697L167.32 35.058C167.548 34.896 167.833 34.767 168.175 34.671C168.517 34.575 168.844 34.527 169.156 34.527C169.756 34.527 170.2 34.671 170.488 34.959C170.776 35.241 170.92 35.685 170.92 36.291V39H170.065V38.271C169.957 38.523 169.789 38.721 169.561 38.865C169.333 39.009 169.06 39.081 168.742 39.081ZM168.922 38.433C169.246 38.433 169.516 38.319 169.732 38.091C169.948 37.863 170.056 37.575 170.056 37.227V36.984H169.759C169.321 36.984 168.976 37.005 168.724 37.047C168.478 37.089 168.301 37.161 168.193 37.263C168.091 37.359 168.04 37.494 168.04 37.668C168.04 37.896 168.118 38.082 168.274 38.226C168.43 38.364 168.646 38.433 168.922 38.433ZM174.797 40.62V38.334C174.569 38.832 174.179 39.081 173.627 39.081C173.309 39.081 173.027 38.988 172.781 38.802C172.541 38.616 172.352 38.352 172.214 38.01C172.082 37.668 172.016 37.266 172.016 36.804C172.016 36.336 172.082 35.934 172.214 35.598C172.352 35.256 172.541 34.992 172.781 34.806C173.027 34.62 173.309 34.527 173.627 34.527C173.903 34.527 174.14 34.593 174.338 34.725C174.536 34.857 174.689 35.04 174.797 35.274V32.655H175.706V35.265C175.814 35.031 175.967 34.851 176.165 34.725C176.363 34.593 176.597 34.527 176.867 34.527C177.185 34.527 177.464 34.62 177.704 34.806C177.95 34.992 178.139 35.256 178.271 35.598C178.409 35.934 178.478 36.336 178.478 36.804C178.478 37.266 178.409 37.668 178.271 38.01C178.139 38.352 177.953 38.616 177.713 38.802C177.473 38.988 177.191 39.081 176.867 39.081C176.327 39.081 175.94 38.835 175.706 38.343V40.62H174.797ZM173.87 38.388C174.158 38.388 174.386 38.256 174.554 37.992C174.728 37.728 174.815 37.332 174.815 36.804C174.815 36.282 174.728 35.889 174.554 35.625C174.386 35.361 174.158 35.229 173.87 35.229C173.588 35.229 173.36 35.361 173.186 35.625C173.012 35.889 172.925 36.282 172.925 36.804C172.925 37.332 173.009 37.728 173.177 37.992C173.351 38.256 173.582 38.388 173.87 38.388ZM176.624 38.388C176.912 38.388 177.14 38.256 177.308 37.992C177.482 37.728 177.569 37.332 177.569 36.804C177.569 36.282 177.482 35.889 177.308 35.625C177.14 35.361 176.912 35.229 176.624 35.229C176.336 35.229 176.108 35.361 175.94 35.625C175.772 35.889 175.688 36.282 175.688 36.804C175.688 37.332 175.772 37.728 175.94 37.992C176.108 38.256 176.336 38.388 176.624 38.388ZM179.598 39V34.608H180.426V37.794L182.802 34.608H183.567V39H182.739V35.823L180.363 39H179.598ZM184.933 39V34.608H185.761V37.794L188.137 34.608H188.902V39H188.074V35.823L185.698 39H184.933ZM186.913 34.05C186.523 34.05 186.187 33.948 185.905 33.744C185.629 33.534 185.437 33.231 185.329 32.835L185.824 32.664C185.932 32.958 186.073 33.174 186.247 33.312C186.427 33.45 186.652 33.519 186.922 33.519C187.198 33.519 187.42 33.453 187.588 33.321C187.762 33.189 187.915 32.973 188.047 32.673L188.524 32.835C188.38 33.261 188.167 33.57 187.885 33.762C187.603 33.954 187.279 34.05 186.913 34.05Z" fill="#272B38"/>
<defs>
<clipPath id="clip0_5_130">
<rect width="50" height="50" fill="white"/>
</clipPath>
</defs>
</svg>
